<svg xmlns="http://www.w3.org/2000/svg" version="1.1" xmlns:xlink="http://www.w3.org/1999/xlink" xmlns:svgjs="http://svgjs.com/svgjs" width="1440" height="560" preserveAspectRatio="none" viewBox="0 0 1440 560"><g mask="url(&quot;#SvgjsMask1008&quot;)" fill="none"><rect width="1440" height="560" x="0" y="0" fill="#0e2a47"></rect><path d="M-54.4 365.38L-54.4 365.38" stroke="#132e65" stroke-width="1.5"></path><path d="M-54.4 365.38L40.77 373.92" stroke="#132e65" stroke-width="1.5"></path><path d="M-54.4 365.38L-107.83 527.56" stroke="#132e65" stroke-width="1.5"></path><path d="M-54.4 365.38L110.38 505.12" stroke="#132e65" stroke-width="1.5"></path><path d="M-54.4 365.38L220.19 386.46" stroke="#132e65" stroke-width="1.5"></path><path d="M-54.4 365.38L52.5 664.07" stroke="#132e65" stroke-width="1.5"></path><path d="M-54.4 365.38L-59.26 711.17" stroke="#132e65" stroke-width="1.5"></path><path d="M-107.83 527.56L-107.83 527.56" stroke="#132e65" stroke-width="1.5"></path><path d="M-107.83 527.56L-59.26 711.17" stroke="#132e65" stroke-width="1.5"></path><path d="M-107.83 527.56L52.5 664.07" stroke="#132e65" stroke-width="1.5"></path><path d="M-59.26 711.17L-59.26 711.17" stroke="#132e65" stroke-width="1.5"></path><path d="M-59.26 711.17L52.5 664.07" stroke="#132e65" stroke-width="1.5"></path><path d="M-59.26 711.17L110.38 505.12" stroke="#132e65" stroke-width="1.5"></path><path d="M-59.26 711.17L208.87 687.58" stroke="#132e65" stroke-width="1.5"></path><path d="M40.77 373.92L40.77 373.92" stroke="#132e65" stroke-width="1.5"></path><path d="M40.77 373.92L110.38 505.12" stroke="#132e65" stroke-width="1.5"></path><path d="M40.77 373.92L220.19 386.46" stroke="#132e65" stroke-width="1.5"></path><path d="M40.77 373.92L-107.83 527.56" stroke="#132e65" stroke-width="1.5"></path><path d="M40.77 373.92L255.01 557.65" stroke="#132e65" stroke-width="1.5"></path><path d="M110.38 505.12L110.38 505.12" stroke="#132e65" stroke-width="1.5"></path><path d="M110.38 505.12L255.01 557.65" stroke="#132e65" stroke-width="1.5"></path><path d="M110.38 505.12L220.19 386.46" stroke="#132e65" stroke-width="1.5"></path><path d="M110.38 505.12L52.5 664.07" stroke="#132e65" stroke-width="1.5"></path><path d="M52.5 664.07L52.5 664.07" stroke="#132e65" stroke-width="1.5"></path><path d="M52.5 664.07L208.87 687.58" stroke="#132e65" stroke-width="1.5"></path><path d="M220.19 386.46L220.19 386.46" stroke="#132e65" stroke-width="1.5"></path><path d="M220.19 386.46L346.89 401.78" stroke="#132e65" stroke-width="1.5"></path><path d="M255.01 557.65L255.01 557.65" stroke="#132e65" stroke-width="1.5"></path><path d="M255.01 557.65L345.53 550.69" stroke="#132e65" stroke-width="1.5"></path><path d="M255.01 557.65L208.87 687.58" stroke="#132e65" stroke-width="1.5"></path><path d="M208.87 687.58L208.87 687.58" stroke="#132e65" stroke-width="1.5"></path><path d="M208.87 687.58L368.86 706.14" stroke="#132e65" stroke-width="1.5"></path><path d="M346.89 401.78L346.89 401.78" stroke="#132e65" stroke-width="1.5"></path><path d="M346.89 401.78L345.53 550.69" stroke="#132e65" stroke-width="1.5"></path><path d="M346.89 401.78L255.01 557.65" stroke="#132e65" stroke-width="1.5"></path><path d="M346.89 401.78L551.67 386.15" stroke="#132e65" stroke-width="1.5"></path><path d="M346.89 401.78L558.78 496.26" stroke="#132e65" stroke-width="1.5"></path><path d="M346.89 401.78L110.38 505.12" stroke="#132e65" stroke-width="1.5"></path><path d="M345.53 550.69L345.53 550.69" stroke="#132e65" stroke-width="1.5"></path><path d="M345.53 550.69L368.86 706.14" stroke="#132e65" stroke-width="1.5"></path><path d="M345.53 550.69L208.87 687.58" stroke="#132e65" stroke-width="1.5"></path><path d="M368.86 706.14L368.86 706.14" stroke="#132e65" stroke-width="1.5"></path><path d="M368.86 706.14L519.26 699.51" stroke="#132e65" stroke-width="1.5"></path><path d="M368.86 706.14L255.01 557.65" stroke="#132e65" stroke-width="1.5"></path><path d="M551.67 386.15L551.67 386.15" stroke="#132e65" stroke-width="1.5"></path><path d="M551.67 386.15L558.78 496.26" stroke="#132e65" stroke-width="1.5"></path><path d="M551.67 386.15L688.55 352.81" stroke="#132e65" stroke-width="1.5"></path><path d="M558.78 496.26L558.78 496.26" stroke="#132e65" stroke-width="1.5"></path><path d="M558.78 496.26L655.71 547.72" stroke="#132e65" stroke-width="1.5"></path><path d="M558.78 496.26L688.55 352.81" stroke="#132e65" stroke-width="1.5"></path><path d="M558.78 496.26L519.26 699.51" stroke="#132e65" stroke-width="1.5"></path><path d="M558.78 496.26L650.93 693.65" stroke="#132e65" stroke-width="1.5"></path><path d="M558.78 496.26L345.53 550.69" stroke="#132e65" stroke-width="1.5"></path><path d="M519.26 699.51L519.26 699.51" stroke="#132e65" stroke-width="1.5"></path><path d="M519.26 699.51L650.93 693.65" stroke="#132e65" stroke-width="1.5"></path><path d="M519.26 699.51L655.71 547.72" stroke="#132e65" stroke-width="1.5"></path><path d="M519.26 699.51L345.53 550.69" stroke="#132e65" stroke-width="1.5"></path><path d="M704.36 259.91L704.36 259.91" stroke="#132e65" stroke-width="1.5"></path><path d="M704.36 259.91L787.93 237.13" stroke="#132e65" stroke-width="1.5"></path><path d="M704.36 259.91L688.55 352.81" stroke="#132e65" stroke-width="1.5"></path><path d="M704.36 259.91L551.67 386.15" stroke="#132e65" stroke-width="1.5"></path><path d="M704.36 259.91L952.46 234.95" stroke="#132e65" stroke-width="1.5"></path><path d="M688.55 352.81L688.55 352.81" stroke="#132e65" stroke-width="1.5"></path><path d="M688.55 352.81L787.93 237.13" stroke="#132e65" stroke-width="1.5"></path><path d="M655.71 547.72L655.71 547.72" stroke="#132e65" stroke-width="1.5"></path><path d="M655.71 547.72L650.93 693.65" stroke="#132e65" stroke-width="1.5"></path><path d="M655.71 547.72L832.09 504.34" stroke="#132e65" stroke-width="1.5"></path><path d="M655.71 547.72L551.67 386.15" stroke="#132e65" stroke-width="1.5"></path><path d="M655.71 547.72L688.55 352.81" stroke="#132e65" stroke-width="1.5"></path><path d="M650.93 693.65L650.93 693.65" stroke="#132e65" stroke-width="1.5"></path><path d="M650.93 693.65L860.83 669.48" stroke="#132e65" stroke-width="1.5"></path><path d="M650.93 693.65L832.09 504.34" stroke="#132e65" stroke-width="1.5"></path><path d="M650.93 693.65L368.86 706.14" stroke="#132e65" stroke-width="1.5"></path><path d="M787.93 237.13L787.93 237.13" stroke="#132e65" stroke-width="1.5"></path><path d="M787.93 237.13L952.46 234.95" stroke="#132e65" stroke-width="1.5"></path><path d="M787.93 237.13L982.11 339.64" stroke="#132e65" stroke-width="1.5"></path><path d="M832.09 504.34L832.09 504.34" stroke="#132e65" stroke-width="1.5"></path><path d="M832.09 504.34L860.83 669.48" stroke="#132e65" stroke-width="1.5"></path><path d="M860.83 669.48L860.83 669.48" stroke="#132e65" stroke-width="1.5"></path><path d="M860.83 669.48L955.18 651.59" stroke="#132e65" stroke-width="1.5"></path><path d="M860.83 669.48L655.71 547.72" stroke="#132e65" stroke-width="1.5"></path><path d="M860.83 669.48L1126.41 665.06" stroke="#132e65" stroke-width="1.5"></path><path d="M860.83 669.48L1142.82 554.7" stroke="#132e65" stroke-width="1.5"></path><path d="M976.93 59.03L976.93 59.03" stroke="#132e65" stroke-width="1.5"></path><path d="M976.93 59.03L1107.41 81.05" stroke="#132e65" stroke-width="1.5"></path><path d="M976.93 59.03L952.46 234.95" stroke="#132e65" stroke-width="1.5"></path><path d="M952.46 234.95L952.46 234.95" stroke="#132e65" stroke-width="1.5"></path><path d="M952.46 234.95L982.11 339.64" stroke="#132e65" stroke-width="1.5"></path><path d="M952.46 234.95L1117.04 241.63" stroke="#132e65" stroke-width="1.5"></path><path d="M952.46 234.95L1107.41 81.05" stroke="#132e65" stroke-width="1.5"></path><path d="M982.11 339.64L982.11 339.64" stroke="#132e65" stroke-width="1.5"></path><path d="M982.11 339.64L1117.04 241.63" stroke="#132e65" stroke-width="1.5"></path><path d="M955.18 651.59L955.18 651.59" stroke="#132e65" stroke-width="1.5"></path><path d="M955.18 651.59L1126.41 665.06" stroke="#132e65" stroke-width="1.5"></path><path d="M955.18 651.59L832.09 504.34" stroke="#132e65" stroke-width="1.5"></path><path d="M955.18 651.59L1142.82 554.7" stroke="#132e65" stroke-width="1.5"></path><path d="M1135.53 -72.68L1135.53 -72.68" stroke="#132e65" stroke-width="1.5"></path><path d="M1135.53 -72.68L1107.41 81.05" stroke="#132e65" stroke-width="1.5"></path><path d="M1135.53 -72.68L1298.09 -107.56" stroke="#132e65" stroke-width="1.5"></path><path d="M1135.53 -72.68L1276.01 70.87" stroke="#132e65" stroke-width="1.5"></path><path d="M1135.53 -72.68L976.93 59.03" stroke="#132e65" stroke-width="1.5"></path><path d="M1135.53 -72.68L1117.04 241.63" stroke="#132e65" stroke-width="1.5"></path><path d="M1135.53 -72.68L1453.73 -45.76" stroke="#132e65" stroke-width="1.5"></path><path d="M1107.41 81.05L1107.41 81.05" stroke="#132e65" stroke-width="1.5"></path><path d="M1107.41 81.05L1117.04 241.63" stroke="#132e65" stroke-width="1.5"></path><path d="M1117.04 241.63L1117.04 241.63" stroke="#132e65" stroke-width="1.5"></path><path d="M1117.04 241.63L1160.47 366.56" stroke="#132e65" stroke-width="1.5"></path><path d="M1160.47 366.56L1160.47 366.56" stroke="#132e65" stroke-width="1.5"></path><path d="M1160.47 366.56L1242.26 400.53" stroke="#132e65" stroke-width="1.5"></path><path d="M1160.47 366.56L982.11 339.64" stroke="#132e65" stroke-width="1.5"></path><path d="M1160.47 366.56L1142.82 554.7" stroke="#132e65" stroke-width="1.5"></path><path d="M1142.82 554.7L1142.82 554.7" stroke="#132e65" stroke-width="1.5"></path><path d="M1142.82 554.7L1126.41 665.06" stroke="#132e65" stroke-width="1.5"></path><path d="M1142.82 554.7L1242.26 400.53" stroke="#132e65" stroke-width="1.5"></path><path d="M1126.41 665.06L1126.41 665.06" stroke="#132e65" stroke-width="1.5"></path><path d="M1126.41 665.06L1305.35 678.83" stroke="#132e65" stroke-width="1.5"></path><path d="M1298.09 -107.56L1298.09 -107.56" stroke="#132e65" stroke-width="1.5"></path><path d="M1298.09 -107.56L1453.73 -45.76" stroke="#132e65" stroke-width="1.5"></path><path d="M1298.09 -107.56L1276.01 70.87" stroke="#132e65" stroke-width="1.5"></path><path d="M1298.09 -107.56L1453.53 52.47" stroke="#132e65" stroke-width="1.5"></path><path d="M1298.09 -107.56L1107.41 81.05" stroke="#132e65" stroke-width="1.5"></path><path d="M1298.09 -107.56L1569.07 -39.37" stroke="#132e65" stroke-width="1.5"></path><path d="M1276.01 70.87L1276.01 70.87" stroke="#132e65" stroke-width="1.5"></path><path d="M1276.01 70.87L1308.15 226.13" stroke="#132e65" stroke-width="1.5"></path><path d="M1276.01 70.87L1107.41 81.05" stroke="#132e65" stroke-width="1.5"></path><path d="M1276.01 70.87L1453.53 52.47" stroke="#132e65" stroke-width="1.5"></path><path d="M1276.01 70.87L1426.56 210.45" stroke="#132e65" stroke-width="1.5"></path><path d="M1308.15 226.13L1308.15 226.13" stroke="#132e65" stroke-width="1.5"></path><path d="M1308.15 226.13L1426.56 210.45" stroke="#132e65" stroke-width="1.5"></path><path d="M1308.15 226.13L1242.26 400.53" stroke="#132e65" stroke-width="1.5"></path><path d="M1242.26 400.53L1242.26 400.53" stroke="#132e65" stroke-width="1.5"></path><path d="M1242.26 400.53L1390.68 526.3" stroke="#132e65" stroke-width="1.5"></path><path d="M1242.26 400.53L1117.04 241.63" stroke="#132e65" stroke-width="1.5"></path><path d="M1305.35 678.83L1305.35 678.83" stroke="#132e65" stroke-width="1.5"></path><path d="M1305.35 678.83L1427.91 641.41" stroke="#132e65" stroke-width="1.5"></path><path d="M1305.35 678.83L1390.68 526.3" stroke="#132e65" stroke-width="1.5"></path><path d="M1305.35 678.83L1142.82 554.7" stroke="#132e65" stroke-width="1.5"></path><path d="M1453.73 -45.76L1453.73 -45.76" stroke="#132e65" stroke-width="1.5"></path><path d="M1453.73 -45.76L1453.53 52.47" stroke="#132e65" stroke-width="1.5"></path><path d="M1453.73 -45.76L1569.07 -39.37" stroke="#132e65" stroke-width="1.5"></path><path d="M1453.73 -45.76L1581.34 60.91" stroke="#132e65" stroke-width="1.5"></path><path d="M1453.73 -45.76L1276.01 70.87" stroke="#132e65" stroke-width="1.5"></path><path d="M1453.73 -45.76L1426.56 210.45" stroke="#132e65" stroke-width="1.5"></path><path d="M1453.53 52.47L1453.53 52.47" stroke="#132e65" stroke-width="1.5"></path><path d="M1453.53 52.47L1581.34 60.91" stroke="#132e65" stroke-width="1.5"></path><path d="M1453.53 52.47L1569.07 -39.37" stroke="#132e65" stroke-width="1.5"></path><path d="M1453.53 52.47L1426.56 210.45" stroke="#132e65" stroke-width="1.5"></path><path d="M1426.56 210.45L1426.56 210.45" stroke="#132e65" stroke-width="1.5"></path><path d="M1426.56 210.45L1575.73 202.17" stroke="#132e65" stroke-width="1.5"></path><path d="M1390.68 526.3L1390.68 526.3" stroke="#132e65" stroke-width="1.5"></path><path d="M1390.68 526.3L1427.91 641.41" stroke="#132e65" stroke-width="1.5"></path><path d="M1390.68 526.3L1599.93 531.61" stroke="#132e65" stroke-width="1.5"></path><path d="M1390.68 526.3L1587.1 392.26" stroke="#132e65" stroke-width="1.5"></path><path d="M1390.68 526.3L1142.82 554.7" stroke="#132e65" stroke-width="1.5"></path><path d="M1427.91 641.41L1427.91 641.41" stroke="#132e65" stroke-width="1.5"></path><path d="M1569.07 -39.37L1569.07 -39.37" stroke="#132e65" stroke-width="1.5"></path><path d="M1569.07 -39.37L1581.34 60.91" stroke="#132e65" stroke-width="1.5"></path><path d="M1569.07 -39.37L1575.73 202.17" stroke="#132e65" stroke-width="1.5"></path><path d="M1581.34 60.91L1581.34 60.91" stroke="#132e65" stroke-width="1.5"></path><path d="M1575.73 202.17L1575.73 202.17" stroke="#132e65" stroke-width="1.5"></path><path d="M1575.73 202.17L1581.34 60.91" stroke="#132e65" stroke-width="1.5"></path><path d="M1575.73 202.17L1587.1 392.26" stroke="#132e65" stroke-width="1.5"></path><path d="M1575.73 202.17L1453.53 52.47" stroke="#132e65" stroke-width="1.5"></path><path d="M1587.1 392.26L1587.1 392.26" stroke="#132e65" stroke-width="1.5"></path><path d="M1587.1 392.26L1599.93 531.61" stroke="#132e65" stroke-width="1.5"></path><path d="M1587.1 392.26L1426.56 210.45" stroke="#132e65" stroke-width="1.5"></path><path d="M1587.1 392.26L1604.07 670.27" stroke="#132e65" stroke-width="1.5"></path><path d="M1599.93 531.61L1599.93 531.61" stroke="#132e65" stroke-width="1.5"></path><path d="M1599.93 531.61L1604.07 670.27" stroke="#132e65" stroke-width="1.5"></path><path d="M1599.93 531.61L1427.91 641.41" stroke="#132e65" stroke-width="1.5"></path><path d="M1604.07 670.27L1604.07 670.27" stroke="#132e65" stroke-width="1.5"></path><path d="M1604.07 670.27L1427.91 641.41" stroke="#132e65" stroke-width="1.5"></path><path d="M1604.07 670.27L1390.68 526.3" stroke="#132e65" stroke-width="1.5"></path><path d="M1604.07 670.27L1305.35 678.83" stroke="#132e65" stroke-width="1.5"></path><path d="M1604.07 670.27L1242.26 400.53" stroke="#132e65" stroke-width="1.5"></path><circle r="5" cx="-54.4" cy="365.38" fill="#132e65"></circle><circle r="5" cx="-107.83" cy="527.56" fill="#132e65"></circle><circle r="5" cx="-59.26" cy="711.17" fill="#132e65"></circle><circle r="5" cx="40.77" cy="373.92" fill="#132e65"></circle><circle r="5" cx="110.38" cy="505.12" fill="#132e65"></circle><circle r="5" cx="52.5" cy="664.07" fill="#132e65"></circle><circle r="5" cx="220.19" cy="386.46" fill="#132e65"></circle><circle r="5" cx="255.01" cy="557.65" fill="#132e65"></circle><circle r="5" cx="208.87" cy="687.58" fill="#132e65"></circle><circle r="5" cx="346.89" cy="401.78" fill="#132e65"></circle><circle r="5" cx="345.53" cy="550.69" fill="#132e65"></circle><circle r="5" cx="368.86" cy="706.14" fill="#132e65"></circle><circle r="5" cx="551.67" cy="386.15" fill="#132e65"></circle><circle r="5" cx="558.78" cy="496.26" fill="#132e65"></circle><circle r="5" cx="519.26" cy="699.51" fill="#132e65"></circle><circle r="5" cx="704.36" cy="259.91" fill="#132e65"></circle><circle r="5" cx="688.55" cy="352.81" fill="#132e65"></circle><circle r="5" cx="655.71" cy="547.72" fill="#132e65"></circle><circle r="5" cx="650.93" cy="693.65" fill="#132e65"></circle><circle r="5" cx="787.93" cy="237.13" fill="#132e65"></circle><circle r="5" cx="832.09" cy="504.34" fill="#132e65"></circle><circle r="5" cx="860.83" cy="669.48" fill="#132e65"></circle><circle r="5" cx="976.93" cy="59.03" fill="#132e65"></circle><circle r="5" cx="952.46" cy="234.95" fill="#132e65"></circle><circle r="5" cx="982.11" cy="339.64" fill="#132e65"></circle><circle r="5" cx="955.18" cy="651.59" fill="#132e65"></circle><circle r="5" cx="1135.53" cy="-72.68" fill="#132e65"></circle><circle r="5" cx="1107.41" cy="81.05" fill="#132e65"></circle><circle r="5" cx="1117.04" cy="241.63" fill="#132e65"></circle><circle r="5" cx="1160.47" cy="366.56" fill="#132e65"></circle><circle r="5" cx="1142.82" cy="554.7" fill="#132e65"></circle><circle r="5" cx="1126.41" cy="665.06" fill="#132e65"></circle><circle r="5" cx="1298.09" cy="-107.56" fill="#132e65"></circle><circle r="5" cx="1276.01" cy="70.87" fill="#132e65"></circle><circle r="5" cx="1308.15" cy="226.13" fill="#132e65"></circle><circle r="5" cx="1242.26" cy="400.53" fill="#132e65"></circle><circle r="5" cx="1305.35" cy="678.83" fill="#132e65"></circle><circle r="5" cx="1453.73" cy="-45.76" fill="#132e65"></circle><circle r="5" cx="1453.53" cy="52.47" fill="#132e65"></circle><circle r="5" cx="1426.56" cy="210.45" fill="#132e65"></circle><circle r="5" cx="1390.68" cy="526.3" fill="#132e65"></circle><circle r="5" cx="1427.91" cy="641.41" fill="#132e65"></circle><circle r="5" cx="1569.07" cy="-39.37" fill="#132e65"></circle><circle r="5" cx="1581.34" cy="60.91" fill="#132e65"></circle><circle r="5" cx="1575.73" cy="202.17" fill="#132e65"></circle><circle r="5" cx="1587.1" cy="392.26" fill="#132e65"></circle><circle r="5" cx="1599.93" cy="531.61" fill="#132e65"></circle><circle r="5" cx="1604.07" cy="670.27" fill="#132e65"></circle><path d="M526.66 500.55L526.66 500.55" stroke="hsl(228.5, 77.2%, 51.5%)" stroke-width="1.5"></path><path d="M526.66 500.55L538.5 409.61" stroke="hsl(228.5, 77.2%, 51.5%)" stroke-width="1.5"></path><path d="M526.66 500.55L394.09 534.8" stroke="hsl(228.5, 77.2%, 51.5%)" stroke-width="1.5"></path><path d="M526.66 500.55L678.91 496.23" stroke="hsl(228.5, 77.2%, 51.5%)" stroke-width="1.5"></path><path d="M649.14 710.31L649.14 710.31" stroke="hsl(228.5, 77.2%, 51.5%)" stroke-width="1.5"></path><path d="M649.14 710.31L539.94 685.28" stroke="hsl(228.5, 77.2%, 51.5%)" stroke-width="1.5"></path><path d="M649.14 710.31L857.52 687.27" stroke="hsl(228.5, 77.2%, 51.5%)" stroke-width="1.5"></path><path d="M649.14 710.31L678.91 496.23" stroke="hsl(228.5, 77.2%, 51.5%)" stroke-width="1.5"></path><path d="M972.6 672.75L972.6 672.75" stroke="hsl(228.5, 77.2%, 51.5%)" stroke-width="1.5"></path><path d="M972.6 672.75L857.52 687.27" stroke="hsl(228.5, 77.2%, 51.5%)" stroke-width="1.5"></path><path d="M972.6 672.75L1090.48 696.11" stroke="hsl(228.5, 77.2%, 51.5%)" stroke-width="1.5"></path><path d="M972.6 672.75L938.94 497.13" stroke="hsl(228.5, 77.2%, 51.5%)" stroke-width="1.5"></path><path d="M972.6 672.75L842.92 509.25" stroke="hsl(228.5, 77.2%, 51.5%)" stroke-width="1.5"></path><path d="M1159.11 377.02L1159.11 377.02" stroke="hsl(228.5, 77.2%, 51.5%)" stroke-width="1.5"></path><path d="M1159.11 377.02L1266.63 402.78" stroke="hsl(228.5, 77.2%, 51.5%)" stroke-width="1.5"></path><path d="M1159.11 377.02L1120.94 503.89" stroke="hsl(228.5, 77.2%, 51.5%)" stroke-width="1.5"></path><path d="M1159.11 377.02L1002.25 343" stroke="hsl(228.5, 77.2%, 51.5%)" stroke-width="1.5"></path><path d="M1159.11 377.02L1116.73 209.71" stroke="hsl(228.5, 77.2%, 51.5%)" stroke-width="1.5"></path><path d="M1302.66 489.95L1302.66 489.95" stroke="hsl(228.5, 77.2%, 51.5%)" stroke-width="1.5"></path><path d="M1302.66 489.95L1266.63 402.78" stroke="hsl(228.5, 77.2%, 51.5%)" stroke-width="1.5"></path><path d="M1302.66 489.95L1430.7 535.89" stroke="hsl(228.5, 77.2%, 51.5%)" stroke-width="1.5"></path><path d="M1302.66 489.95L1120.94 503.89" stroke="hsl(228.5, 77.2%, 51.5%)" stroke-width="1.5"></path><path d="M1302.66 489.95L1159.11 377.02" stroke="hsl(228.5, 77.2%, 51.5%)" stroke-width="1.5"></path><path d="M1302.66 489.95L1449.1 368.44" stroke="hsl(228.5, 77.2%, 51.5%)" stroke-width="1.5"></path><path d="M1426.9 -107.3L1426.9 -107.3" stroke="hsl(228.5, 77.2%, 51.5%)" stroke-width="1.5"></path><path d="M1426.9 -107.3L1290.59 -58.13" stroke="hsl(228.5, 77.2%, 51.5%)" stroke-width="1.5"></path><path d="M1429.83 196.54L1429.83 196.54" stroke="hsl(228.5, 77.2%, 51.5%)" stroke-width="1.5"></path><path d="M1429.83 196.54L1418.12 83.82" stroke="hsl(228.5, 77.2%, 51.5%)" stroke-width="1.5"></path><path d="M1429.83 196.54L1554.14 217.54" stroke="hsl(228.5, 77.2%, 51.5%)" stroke-width="1.5"></path><path d="M1429.83 196.54L1268.07 230.32" stroke="hsl(228.5, 77.2%, 51.5%)" stroke-width="1.5"></path><path d="M1429.83 196.54L1449.1 368.44" stroke="hsl(228.5, 77.2%, 51.5%)" stroke-width="1.5"></path><path d="M1429.83 196.54L1264.81 98.39" stroke="hsl(228.5, 77.2%, 51.5%)" stroke-width="1.5"></path><path d="M1552.12 41.32L1552.12 41.32" stroke="hsl(228.5, 77.2%, 51.5%)" stroke-width="1.5"></path><path d="M1552.12 41.32L1418.12 83.82" stroke="hsl(228.5, 77.2%, 51.5%)" stroke-width="1.5"></path><path d="M1552.12 41.32L1601.59 -106.71" stroke="hsl(228.5, 77.2%, 51.5%)" stroke-width="1.5"></path><path d="M1554.14 217.54L1554.14 217.54" stroke="hsl(228.5, 77.2%, 51.5%)" stroke-width="1.5"></path><path d="M1554.14 217.54L1552.12 41.32" stroke="hsl(228.5, 77.2%, 51.5%)" stroke-width="1.5"></path><path d="M1554.14 217.54L1449.1 368.44" stroke="hsl(228.5, 77.2%, 51.5%)" stroke-width="1.5"></path><path d="M39.96 503.36L39.96 503.36" stroke="hsl(228.5, 77.2%, 51.5%)" stroke-width="1.5"></path><path d="M39.96 503.36L200.96 538.05" stroke="hsl(228.5, 77.2%, 51.5%)" stroke-width="1.5"></path><path d="M39.96 503.36L110.48 659.51" stroke="hsl(228.5, 77.2%, 51.5%)" stroke-width="1.5"></path><path d="M39.96 503.36L208.27 666.72" stroke="hsl(228.5, 77.2%, 51.5%)" stroke-width="1.5"></path><path d="M110.48 659.51L110.48 659.51" stroke="hsl(228.5, 77.2%, 51.5%)" stroke-width="1.5"></path><path d="M110.48 659.51L208.27 666.72" stroke="hsl(228.5, 77.2%, 51.5%)" stroke-width="1.5"></path><path d="M110.48 659.51L200.96 538.05" stroke="hsl(228.5, 77.2%, 51.5%)" stroke-width="1.5"></path><path d="M110.48 659.51L365.22 645.88" stroke="hsl(228.5, 77.2%, 51.5%)" stroke-width="1.5"></path><path d="M110.48 659.51L394.09 534.8" stroke="hsl(228.5, 77.2%, 51.5%)" stroke-width="1.5"></path><path d="M200.96 538.05L200.96 538.05" stroke="hsl(228.5, 77.2%, 51.5%)" stroke-width="1.5"></path><path d="M200.96 538.05L208.27 666.72" stroke="hsl(228.5, 77.2%, 51.5%)" stroke-width="1.5"></path><path d="M200.96 538.05L394.09 534.8" stroke="hsl(228.5, 77.2%, 51.5%)" stroke-width="1.5"></path><path d="M200.96 538.05L365.22 645.88" stroke="hsl(228.5, 77.2%, 51.5%)" stroke-width="1.5"></path><path d="M200.96 538.05L526.66 500.55" stroke="hsl(228.5, 77.2%, 51.5%)" stroke-width="1.5"></path><path d="M208.27 666.72L208.27 666.72" stroke="hsl(228.5, 77.2%, 51.5%)" stroke-width="1.5"></path><path d="M208.27 666.72L365.22 645.88" stroke="hsl(228.5, 77.2%, 51.5%)" stroke-width="1.5"></path><path d="M208.27 666.72L394.09 534.8" stroke="hsl(228.5, 77.2%, 51.5%)" stroke-width="1.5"></path><path d="M394.09 534.8L394.09 534.8" stroke="hsl(228.5, 77.2%, 51.5%)" stroke-width="1.5"></path><path d="M394.09 534.8L365.22 645.88" stroke="hsl(228.5, 77.2%, 51.5%)" stroke-width="1.5"></path><path d="M394.09 534.8L538.5 409.61" stroke="hsl(228.5, 77.2%, 51.5%)" stroke-width="1.5"></path><path d="M365.22 645.88L365.22 645.88" stroke="hsl(228.5, 77.2%, 51.5%)" stroke-width="1.5"></path><path d="M365.22 645.88L539.94 685.28" stroke="hsl(228.5, 77.2%, 51.5%)" stroke-width="1.5"></path><path d="M538.5 409.61L538.5 409.61" stroke="hsl(228.5, 77.2%, 51.5%)" stroke-width="1.5"></path><path d="M538.5 409.61L678.91 496.23" stroke="hsl(228.5, 77.2%, 51.5%)" stroke-width="1.5"></path><path d="M538.5 409.61L708.45 393.1" stroke="hsl(228.5, 77.2%, 51.5%)" stroke-width="1.5"></path><path d="M538.5 409.61L792.78 383.84" stroke="hsl(228.5, 77.2%, 51.5%)" stroke-width="1.5"></path><path d="M538.5 409.61L539.94 685.28" stroke="hsl(228.5, 77.2%, 51.5%)" stroke-width="1.5"></path><path d="M539.94 685.28L539.94 685.28" stroke="hsl(228.5, 77.2%, 51.5%)" stroke-width="1.5"></path><path d="M708.45 393.1L708.45 393.1" stroke="hsl(228.5, 77.2%, 51.5%)" stroke-width="1.5"></path><path d="M708.45 393.1L792.78 383.84" stroke="hsl(228.5, 77.2%, 51.5%)" stroke-width="1.5"></path><path d="M708.45 393.1L678.91 496.23" stroke="hsl(228.5, 77.2%, 51.5%)" stroke-width="1.5"></path><path d="M678.91 496.23L678.91 496.23" stroke="hsl(228.5, 77.2%, 51.5%)" stroke-width="1.5"></path><path d="M678.91 496.23L792.78 383.84" stroke="hsl(228.5, 77.2%, 51.5%)" stroke-width="1.5"></path><path d="M678.91 496.23L842.92 509.25" stroke="hsl(228.5, 77.2%, 51.5%)" stroke-width="1.5"></path><path d="M792.78 383.84L792.78 383.84" stroke="hsl(228.5, 77.2%, 51.5%)" stroke-width="1.5"></path><path d="M792.78 383.84L842.92 509.25" stroke="hsl(228.5, 77.2%, 51.5%)" stroke-width="1.5"></path><path d="M792.78 383.84L938.94 497.13" stroke="hsl(228.5, 77.2%, 51.5%)" stroke-width="1.5"></path><path d="M842.92 509.25L842.92 509.25" stroke="hsl(228.5, 77.2%, 51.5%)" stroke-width="1.5"></path><path d="M842.92 509.25L938.94 497.13" stroke="hsl(228.5, 77.2%, 51.5%)" stroke-width="1.5"></path><path d="M842.92 509.25L708.45 393.1" stroke="hsl(228.5, 77.2%, 51.5%)" stroke-width="1.5"></path><path d="M857.52 687.27L857.52 687.27" stroke="hsl(228.5, 77.2%, 51.5%)" stroke-width="1.5"></path><path d="M857.52 687.27L842.92 509.25" stroke="hsl(228.5, 77.2%, 51.5%)" stroke-width="1.5"></path><path d="M857.52 687.27L938.94 497.13" stroke="hsl(228.5, 77.2%, 51.5%)" stroke-width="1.5"></path><path d="M967.3 258.23L967.3 258.23" stroke="hsl(228.5, 77.2%, 51.5%)" stroke-width="1.5"></path><path d="M967.3 258.23L1002.25 343" stroke="hsl(228.5, 77.2%, 51.5%)" stroke-width="1.5"></path><path d="M967.3 258.23L1116.73 209.71" stroke="hsl(228.5, 77.2%, 51.5%)" stroke-width="1.5"></path><path d="M967.3 258.23L792.78 383.84" stroke="hsl(228.5, 77.2%, 51.5%)" stroke-width="1.5"></path><path d="M1002.25 343L1002.25 343" stroke="hsl(228.5, 77.2%, 51.5%)" stroke-width="1.5"></path><path d="M1002.25 343L938.94 497.13" stroke="hsl(228.5, 77.2%, 51.5%)" stroke-width="1.5"></path><path d="M938.94 497.13L938.94 497.13" stroke="hsl(228.5, 77.2%, 51.5%)" stroke-width="1.5"></path><path d="M1116.73 209.71L1116.73 209.71" stroke="hsl(228.5, 77.2%, 51.5%)" stroke-width="1.5"></path><path d="M1116.73 209.71L1268.07 230.32" stroke="hsl(228.5, 77.2%, 51.5%)" stroke-width="1.5"></path><path d="M1120.94 503.89L1120.94 503.89" stroke="hsl(228.5, 77.2%, 51.5%)" stroke-width="1.5"></path><path d="M1120.94 503.89L1266.63 402.78" stroke="hsl(228.5, 77.2%, 51.5%)" stroke-width="1.5"></path><path d="M1120.94 503.89L938.94 497.13" stroke="hsl(228.5, 77.2%, 51.5%)" stroke-width="1.5"></path><path d="M1120.94 503.89L1090.48 696.11" stroke="hsl(228.5, 77.2%, 51.5%)" stroke-width="1.5"></path><path d="M1090.48 696.11L1090.48 696.11" stroke="hsl(228.5, 77.2%, 51.5%)" stroke-width="1.5"></path><path d="M1090.48 696.11L1246.18 682.02" stroke="hsl(228.5, 77.2%, 51.5%)" stroke-width="1.5"></path><path d="M1090.48 696.11L857.52 687.27" stroke="hsl(228.5, 77.2%, 51.5%)" stroke-width="1.5"></path><path d="M1090.48 696.11L938.94 497.13" stroke="hsl(228.5, 77.2%, 51.5%)" stroke-width="1.5"></path><path d="M1090.48 696.11L1302.66 489.95" stroke="hsl(228.5, 77.2%, 51.5%)" stroke-width="1.5"></path><path d="M1290.59 -58.13L1290.59 -58.13" stroke="hsl(228.5, 77.2%, 51.5%)" stroke-width="1.5"></path><path d="M1290.59 -58.13L1264.81 98.39" stroke="hsl(228.5, 77.2%, 51.5%)" stroke-width="1.5"></path><path d="M1290.59 -58.13L1418.12 83.82" stroke="hsl(228.5, 77.2%, 51.5%)" stroke-width="1.5"></path><path d="M1290.59 -58.13L1552.12 41.32" stroke="hsl(228.5, 77.2%, 51.5%)" stroke-width="1.5"></path><path d="M1264.81 98.39L1264.81 98.39" stroke="hsl(228.5, 77.2%, 51.5%)" stroke-width="1.5"></path><path d="M1264.81 98.39L1268.07 230.32" stroke="hsl(228.5, 77.2%, 51.5%)" stroke-width="1.5"></path><path d="M1264.81 98.39L1418.12 83.82" stroke="hsl(228.5, 77.2%, 51.5%)" stroke-width="1.5"></path><path d="M1268.07 230.32L1268.07 230.32" stroke="hsl(228.5, 77.2%, 51.5%)" stroke-width="1.5"></path><path d="M1266.63 402.78L1266.63 402.78" stroke="hsl(228.5, 77.2%, 51.5%)" stroke-width="1.5"></path><path d="M1266.63 402.78L1268.07 230.32" stroke="hsl(228.5, 77.2%, 51.5%)" stroke-width="1.5"></path><path d="M1246.18 682.02L1246.18 682.02" stroke="hsl(228.5, 77.2%, 51.5%)" stroke-width="1.5"></path><path d="M1246.18 682.02L1405.4 681.63" stroke="hsl(228.5, 77.2%, 51.5%)" stroke-width="1.5"></path><path d="M1246.18 682.02L1302.66 489.95" stroke="hsl(228.5, 77.2%, 51.5%)" stroke-width="1.5"></path><path d="M1246.18 682.02L1120.94 503.89" stroke="hsl(228.5, 77.2%, 51.5%)" stroke-width="1.5"></path><path d="M1246.18 682.02L1430.7 535.89" stroke="hsl(228.5, 77.2%, 51.5%)" stroke-width="1.5"></path><path d="M1246.18 682.02L972.6 672.75" stroke="hsl(228.5, 77.2%, 51.5%)" stroke-width="1.5"></path><path d="M1418.12 83.82L1418.12 83.82" stroke="hsl(228.5, 77.2%, 51.5%)" stroke-width="1.5"></path><path d="M1449.1 368.44L1449.1 368.44" stroke="hsl(228.5, 77.2%, 51.5%)" stroke-width="1.5"></path><path d="M1449.1 368.44L1430.7 535.89" stroke="hsl(228.5, 77.2%, 51.5%)" stroke-width="1.5"></path><path d="M1449.1 368.44L1266.63 402.78" stroke="hsl(228.5, 77.2%, 51.5%)" stroke-width="1.5"></path><path d="M1449.1 368.44L1601.62 534.44" stroke="hsl(228.5, 77.2%, 51.5%)" stroke-width="1.5"></path><path d="M1430.7 535.89L1430.7 535.89" stroke="hsl(228.5, 77.2%, 51.5%)" stroke-width="1.5"></path><path d="M1430.7 535.89L1405.4 681.63" stroke="hsl(228.5, 77.2%, 51.5%)" stroke-width="1.5"></path><path d="M1430.7 535.89L1601.62 534.44" stroke="hsl(228.5, 77.2%, 51.5%)" stroke-width="1.5"></path><path d="M1405.4 681.63L1405.4 681.63" stroke="hsl(228.5, 77.2%, 51.5%)" stroke-width="1.5"></path><path d="M1405.4 681.63L1543.19 695.47" stroke="hsl(228.5, 77.2%, 51.5%)" stroke-width="1.5"></path><path d="M1405.4 681.63L1302.66 489.95" stroke="hsl(228.5, 77.2%, 51.5%)" stroke-width="1.5"></path><path d="M1405.4 681.63L1601.62 534.44" stroke="hsl(228.5, 77.2%, 51.5%)" stroke-width="1.5"></path><path d="M1601.59 -106.71L1601.59 -106.71" stroke="hsl(228.5, 77.2%, 51.5%)" stroke-width="1.5"></path><path d="M1601.59 -106.71L1426.9 -107.3" stroke="hsl(228.5, 77.2%, 51.5%)" stroke-width="1.5"></path><path d="M1601.59 -106.71L1418.12 83.82" stroke="hsl(228.5, 77.2%, 51.5%)" stroke-width="1.5"></path><path d="M1601.59 -106.71L1290.59 -58.13" stroke="hsl(228.5, 77.2%, 51.5%)" stroke-width="1.5"></path><path d="M1601.59 -106.71L1554.14 217.54" stroke="hsl(228.5, 77.2%, 51.5%)" stroke-width="1.5"></path><path d="M1601.59 -106.71L1429.83 196.54" stroke="hsl(228.5, 77.2%, 51.5%)" stroke-width="1.5"></path><path d="M1601.62 534.44L1601.62 534.44" stroke="hsl(228.5, 77.2%, 51.5%)" stroke-width="1.5"></path><path d="M1601.62 534.44L1543.19 695.47" stroke="hsl(228.5, 77.2%, 51.5%)" stroke-width="1.5"></path><path d="M1543.19 695.47L1543.19 695.47" stroke="hsl(228.5, 77.2%, 51.5%)" stroke-width="1.5"></path><path d="M1543.19 695.47L1430.7 535.89" stroke="hsl(228.5, 77.2%, 51.5%)" stroke-width="1.5"></path><circle r="25" cx="526.66" cy="500.55" fill="url(#SvgjsRadialGradient1009)"></circle><circle r="25" cx="649.14" cy="710.31" fill="url(#SvgjsRadialGradient1009)"></circle><circle r="25" cx="972.6" cy="672.75" fill="url(#SvgjsRadialGradient1009)"></circle><circle r="25" cx="1159.11" cy="377.02" fill="url(#SvgjsRadialGradient1009)"></circle><circle r="25" cx="1302.66" cy="489.95" fill="url(#SvgjsRadialGradient1009)"></circle><circle r="25" cx="1426.9" cy="-107.3" fill="url(#SvgjsRadialGradient1009)"></circle><circle r="25" cx="1429.83" cy="196.54" fill="url(#SvgjsRadialGradient1009)"></circle><circle r="25" cx="1552.12" cy="41.32" fill="url(#SvgjsRadialGradient1009)"></circle><circle r="25" cx="1554.14" cy="217.54" fill="url(#SvgjsRadialGradient1009)"></circle><circle r="5" cx="39.96" cy="503.36" fill="#8b9ad9"></circle><circle r="5" cx="110.48" cy="659.51" fill="#8b9ad9"></circle><circle r="5" cx="200.96" cy="538.05" fill="#8b9ad9"></circle><circle r="5" cx="208.27" cy="666.72" fill="#8b9ad9"></circle><circle r="5" cx="394.09" cy="534.8" fill="#8b9ad9"></circle><circle r="5" cx="365.22" cy="645.88" fill="#8b9ad9"></circle><circle r="5" cx="538.5" cy="409.61" fill="#8b9ad9"></circle><circle r="5" cx="539.94" cy="685.28" fill="#8b9ad9"></circle><circle r="5" cx="708.45" cy="393.1" fill="#8b9ad9"></circle><circle r="5" cx="678.91" cy="496.23" fill="#8b9ad9"></circle><circle r="5" cx="792.78" cy="383.84" fill="#8b9ad9"></circle><circle r="5" cx="842.92" cy="509.25" fill="#8b9ad9"></circle><circle r="5" cx="857.52" cy="687.27" fill="#8b9ad9"></circle><circle r="5" cx="967.3" cy="258.23" fill="#8b9ad9"></circle><circle r="5" cx="1002.25" cy="343" fill="#8b9ad9"></circle><circle r="5" cx="938.94" cy="497.13" fill="#8b9ad9"></circle><circle r="5" cx="1116.73" cy="209.71" fill="#8b9ad9"></circle><circle r="5" cx="1120.94" cy="503.89" fill="#8b9ad9"></circle><circle r="5" cx="1090.48" cy="696.11" fill="#8b9ad9"></circle><circle r="5" cx="1290.59" cy="-58.13" fill="#8b9ad9"></circle><circle r="5" cx="1264.81" cy="98.39" fill="#8b9ad9"></circle><circle r="5" cx="1268.07" cy="230.32" fill="#8b9ad9"></circle><circle r="5" cx="1266.63" cy="402.78" fill="#8b9ad9"></circle><circle r="5" cx="1246.18" cy="682.02" fill="#8b9ad9"></circle><circle r="5" cx="1418.12" cy="83.82" fill="#8b9ad9"></circle><circle r="5" cx="1449.1" cy="368.44" fill="#8b9ad9"></circle><circle r="5" cx="1430.7" cy="535.89" fill="#8b9ad9"></circle><circle r="5" cx="1405.4" cy="681.63" fill="#8b9ad9"></circle><circle r="5" cx="1601.59" cy="-106.71" fill="#8b9ad9"></circle><circle r="5" cx="1601.62" cy="534.44" fill="#8b9ad9"></circle><circle r="5" cx="1543.19" cy="695.47" fill="#8b9ad9"></circle></g><defs><mask id="SvgjsMask1008"><rect width="1440" height="560" fill="#ffffff"></rect></mask><radialGradient id="SvgjsRadialGradient1009"><stop stop-color="#ffffff" offset="0.1"></stop><stop stop-color="#1735b3" offset="0.2"></stop><stop stop-color="rgba(23, 53, 179, 0)" offset="1"></stop></radialGradient></defs></svg>